<svg width="30" height="31" viewBox="0 0 30 31" fill="none" xmlns="http://www.w3.org/2000/svg">
  <path d="M14.6982 6.10352e-05C15.0992 0.00282039 15.4829 0.165978 15.7627 0.453186L28.6035 13.6417C29.1812 14.235 29.1691 15.1848 28.5762 15.7628C27.9826 16.3407 27.032 16.328 26.4541 15.7344L16.1875 5.19049V28.7442C16.1875 29.5726 15.5159 30.2442 14.6875 30.2442C13.8593 30.244 13.1875 29.5725 13.1875 28.7442V5.12115L2.56055 15.7491C1.9748 16.3347 1.0252 16.3347 0.439453 15.7491C-0.146239 15.1633 -0.146165 14.2138 0.439453 13.628L13.6279 0.439514L13.7383 0.338928C14.0076 0.118678 14.3472 -0.00227923 14.6982 6.10352e-05Z" fill="#8D715C"/>
</svg>
